<svg width="8" height="12" viewBox="0 0 8 12" fill="none" xmlns="http://www.w3.org/2000/svg">
<path d="M7.00001 0H1.00001C0.4485 0 0 0.448477 0 1.00001V11C0 11.5515 0.4485 12 1.00001 12H7.00001C7.55152 12 8.00002 11.5515 8.00002 11V1.00001C8.00002 0.448477 7.55152 0 7.00001 0ZM4.75001 11H3.25001C3.11182 11 3 10.8882 3 10.75C3 10.6118 3.11182 10.5 3.25001 10.5H4.75001C4.8882 10.5 5.00002 10.6118 5.00002 10.75C5.00002 10.8882 4.8882 11 4.75001 11ZM7.00001 9.49999H1.00001V1.00001H7.00001V9.49999Z" fill="white"/>
</svg>
