<svg width="37" height="42" viewBox="0 0 37 42" fill="none" xmlns="http://www.w3.org/2000/svg">
<path d="M0 0L4.11111 4.42105H0V0Z" fill="#375D80"/>
<path d="M32.8889 37.0264L37 42.0001H32.8889V37.0264Z" fill="#375D80"/>
<path d="M36.995 41.9868L0.0110682 0.005H14.974L36.995 23.627V41.9868Z" fill="#4077AA" stroke="black" stroke-width="0.01"/>
<path d="M14.3256 8.72532C14.5142 8.56277 14.6011 8.37188 14.5862 8.15266C14.5736 7.93153 14.4736 7.60003 14.2862 7.15818C14.1011 6.71442 13.9759 6.3447 13.9106 6.04903C13.7337 5.24235 13.8972 4.62195 14.401 4.18784C14.6629 3.96218 14.9591 3.83463 15.2895 3.80517C15.624 3.77602 15.9676 3.84933 16.3201 4.0251C16.6746 4.20308 17 4.46408 17.2964 4.8081C17.5947 5.15433 17.7973 5.51733 17.9041 5.89711C18.0131 6.27497 18.0174 6.63674 17.9169 6.98242C17.8184 7.33032 17.6237 7.62952 17.333 7.88005L16.4724 6.8813C16.6943 6.69006 16.8061 6.47194 16.8077 6.22694C16.8115 5.98002 16.7044 5.73005 16.4864 5.47704C16.276 5.2329 16.0604 5.08808 15.8394 5.04257C15.6207 4.99516 15.4269 5.04412 15.2583 5.18946C15.1007 5.32524 15.0365 5.51781 15.0658 5.76719C15.0969 6.01878 15.1988 6.33899 15.3714 6.72781C15.6901 7.44324 15.8348 8.03979 15.8055 8.51748C15.7762 8.99516 15.573 9.39656 15.1957 9.72166C14.7762 10.0831 14.3099 10.2084 13.7967 10.0976C13.2857 9.9848 12.7989 9.65987 12.3361 9.12277C12.0148 8.7499 11.7899 8.352 11.6614 7.92906C11.5351 7.50421 11.5209 7.10847 11.6187 6.74183C11.7185 6.3774 11.9249 6.06037 12.2378 5.79072L13.1013 6.7928C12.5664 7.25368 12.5743 7.80372 13.1251 8.44292C13.3297 8.6804 13.5371 8.8246 13.7473 8.87554C13.9597 8.92456 14.1524 8.87449 14.3256 8.72532ZM15.8099 13.1544C15.3548 12.6261 15.1458 12.056 15.183 11.4439C15.2221 10.8339 15.5113 10.2966 16.0506 9.83194L16.1438 9.75162C16.5056 9.4399 16.8887 9.23156 17.2933 9.1266C17.7001 9.01973 18.09 9.02794 18.4631 9.15122C18.8403 9.27481 19.1704 9.50084 19.4534 9.82931C19.878 10.322 20.0563 10.8432 19.9885 11.3928C19.9225 11.9446 19.6044 12.4663 19.034 12.9577L18.6411 13.2962L16.6647 11.0024C16.4562 11.2362 16.3479 11.492 16.3397 11.7697C16.3334 12.0497 16.4336 12.3096 16.6401 12.5493C16.9595 12.9199 17.3433 13.0938 17.7916 13.0711L17.6696 13.9999C17.3411 14.0316 17.013 13.974 16.6854 13.827C16.3599 13.6782 16.0681 13.454 15.8099 13.1544ZM18.6715 10.4972C18.5071 10.3064 18.3088 10.2065 18.0768 10.1975C17.8468 10.1908 17.5975 10.2741 17.3291 10.4473L18.4823 11.7856L18.5589 11.7197C18.7681 11.5316 18.8826 11.3324 18.9024 11.122C18.9244 10.9097 18.8475 10.7014 18.6715 10.4972ZM18.5012 16.1432L17.6693 15.1777L22.7829 10.7716L23.6148 11.7371L18.5012 16.1432ZM20.5488 18.6541C20.0936 18.1259 19.8846 17.5557 19.9218 16.9436C19.9609 16.3337 20.2501 15.7964 20.7894 15.3317L20.8827 15.2514C21.2444 14.9397 21.6276 14.7313 22.0322 14.6264C22.439 14.5195 22.8289 14.5277 23.2019 14.651C23.5791 14.7746 23.9093 15.0006 24.1923 15.3291C24.6168 15.8218 24.7952 16.3429 24.7273 16.8925C24.6614 17.4444 24.3432 17.966 23.7728 18.4575L23.38 18.796L21.4036 16.5022C21.1951 16.736 21.0867 16.9918 21.0786 17.2695C21.0723 17.5495 21.1724 17.8093 21.379 18.049C21.6983 18.4197 22.0822 18.5936 22.5305 18.5708L22.4085 19.4997C22.08 19.5313 21.7519 19.4737 21.4242 19.3268C21.0988 19.178 20.8069 18.9538 20.5488 18.6541ZM23.4104 15.997C23.2459 15.8061 23.0477 15.7062 22.8157 15.6973C22.5856 15.6906 22.3364 15.7738 22.068 15.9471L23.2212 17.2854L23.2977 17.2194C23.507 17.0314 23.6215 16.8322 23.6413 16.6218C23.6633 16.4094 23.5863 16.2012 23.4104 15.997ZM25.0416 21.7207C25.1592 21.6194 25.2006 21.4812 25.1659 21.3062C25.1352 21.1315 25.0356 20.8925 24.867 20.5891C24.3086 19.5775 24.3035 18.8355 24.8517 18.3632C25.1713 18.0878 25.5515 17.9904 25.9921 18.0709C26.4369 18.1517 26.8438 18.4063 27.2129 18.8347C27.6068 19.2919 27.8138 19.7497 27.8337 20.2082C27.8556 20.6689 27.6945 21.0475 27.3505 21.3439L26.5214 20.3818C26.6591 20.2632 26.734 20.1213 26.7463 19.956C26.7608 19.7888 26.6868 19.6109 26.5242 19.4223C26.3846 19.2603 26.2399 19.1664 26.0902 19.1407C25.9405 19.1151 25.809 19.151 25.6958 19.2485C25.5893 19.3403 25.5457 19.4648 25.5652 19.6221C25.5888 19.7796 25.6795 19.9993 25.8372 20.2811C25.9971 20.5609 26.1179 20.8088 26.1995 21.0247C26.451 21.6936 26.347 22.2259 25.8876 22.6218C25.5591 22.9048 25.1713 22.9934 24.7243 22.8875C24.2794 22.7796 23.8648 22.5026 23.4804 22.0565C23.2204 21.7547 23.0422 21.4402 22.946 21.1132C22.854 20.7864 22.8438 20.4762 22.9155 20.1824C22.9894 19.8866 23.1351 19.6451 23.3526 19.4577L24.1386 20.3698C23.9754 20.526 23.8989 20.7021 23.9093 20.8981C23.9196 21.0941 24.0099 21.2909 24.1801 21.4884C24.3388 21.6727 24.4928 21.7817 24.6419 21.8157C24.7952 21.8499 24.9284 21.8183 25.0416 21.7207ZM27.1872 26.2239C27.2355 26.1049 27.3154 25.98 27.427 25.8491C26.9665 25.8398 26.5756 25.6487 26.2543 25.2758C25.9503 24.9229 25.7999 24.542 25.8033 24.133C25.8086 23.7263 25.9666 23.389 26.2773 23.1213C26.6591 22.7924 27.0735 22.6809 27.5206 22.7868C27.9695 22.8949 28.4256 23.2155 28.8887 23.7485L29.2702 24.1912L29.4766 24.0134C29.643 23.87 29.7389 23.7119 29.7642 23.5393C29.7914 23.3689 29.7257 23.1916 29.5669 23.0074C29.4273 22.8454 29.2785 22.7512 29.1205 22.725C28.9644 22.7009 28.8187 22.7472 28.6833 22.8638L27.8543 21.9017C28.0629 21.722 28.3115 21.6199 28.5999 21.5957C28.8884 21.5714 29.184 21.6339 29.4865 21.7831C29.7913 21.9304 30.07 22.1505 30.3224 22.4435C30.7049 22.8874 30.8959 23.3357 30.8955 23.7885C30.8992 24.2417 30.6991 24.6423 30.2952 24.9903L28.7338 26.3357C28.3939 26.6324 28.1765 26.9029 28.0814 27.1472L28.0248 27.196L27.1872 26.2239ZM27.1708 24.8516C27.2932 24.9936 27.4371 25.0978 27.6025 25.1641C27.7701 25.2285 27.9321 25.2437 28.0883 25.2096L28.7076 24.676L28.3977 24.3165C27.9828 23.8349 27.5954 23.7219 27.2357 23.9777L27.1763 24.0232C27.0564 24.1264 26.994 24.2537 26.989 24.405C26.984 24.5562 27.0446 24.7051 27.1708 24.8516ZM29.4132 28.8073L28.5813 27.8418L32.1835 24.738L33.0154 25.7035L29.4132 28.8073ZM33.0669 23.8782C33.2111 23.7539 33.371 23.6993 33.5465 23.7145C33.7238 23.7318 33.8842 23.8237 34.0276 23.9902C34.1692 24.1544 34.2354 24.3255 34.2263 24.5035C34.2172 24.6814 34.1406 24.8326 33.9963 24.9569C33.8498 25.0831 33.6869 25.1364 33.5077 25.1169C33.3303 25.0995 33.1718 25.0099 33.0322 24.8479C32.8926 24.6858 32.8264 24.5147 32.8336 24.3345C32.8426 24.1566 32.9204 24.0045 33.0669 23.8782Z" fill="white"/>
</svg>
