<svg width="25" height="25" viewBox="0 0 25 25" fill="none" xmlns="http://www.w3.org/2000/svg">
<path d="M22.8027 5.85938H19.8222C20.2831 5.24687 20.5566 4.48589 20.5566 3.66211C20.5566 1.64282 18.9138 0 16.8945 0C15.6782 0 14.7813 0.435791 14.0718 1.37144C13.4783 2.15425 13.0443 3.24722 12.5 4.62817C11.9557 3.24717 11.5217 2.15425 10.9282 1.37144C10.2188 0.435791 9.32183 0 8.10547 0C6.08618 0 4.44336 1.64282 4.44336 3.66211C4.44336 4.48589 4.71694 5.24687 5.17778 5.85938H2.19727C0.985693 5.85938 0 6.84507 0 8.05664V9.52148C0 10.4763 0.612354 11.2904 1.46484 11.5928V22.8027C1.46484 24.0143 2.45054 25 3.66211 25H21.3379C22.5495 25 23.5352 24.0143 23.5352 22.8027V11.5928C24.3876 11.2904 25 10.4763 25 9.52148V8.05664C25 6.84507 24.0143 5.85938 22.8027 5.85938ZM13.8444 5.21191C14.9665 2.36533 15.393 1.46484 16.8945 1.46484C18.1061 1.46484 19.0918 2.45054 19.0918 3.66211C19.0918 4.87368 18.1061 5.85938 16.8945 5.85938H13.5882C13.678 5.63403 13.7636 5.41709 13.8444 5.21191ZM8.10547 1.46484C9.60698 1.46484 10.0335 2.36533 11.1556 5.21191C11.2364 5.41709 11.322 5.63403 11.4118 5.85938H8.10547C6.8939 5.85938 5.9082 4.87368 5.9082 3.66211C5.9082 2.45054 6.8939 1.46484 8.10547 1.46484ZM9.57031 23.5352H3.66211C3.25825 23.5352 2.92969 23.2066 2.92969 22.8027V11.7188H9.57031V23.5352ZM9.57031 10.2539H2.19727C1.79341 10.2539 1.46484 9.92534 1.46484 9.52148V8.05664C1.46484 7.65278 1.79341 7.32422 2.19727 7.32422H9.57031V10.2539ZM13.9648 23.5352H11.0352V7.32422C11.1886 7.32422 13.123 7.32422 13.9648 7.32422V23.5352ZM22.0703 22.8027C22.0703 23.2066 21.7417 23.5352 21.3379 23.5352H15.4297V11.7188H22.0703V22.8027ZM23.5352 9.52148C23.5352 9.92534 23.2066 10.2539 22.8027 10.2539H15.4297V7.32422H22.8027C23.2066 7.32422 23.5352 7.65278 23.5352 8.05664V9.52148Z" fill="white" fill-opacity="1"/>
</svg>
