<svg width="12" height="12" viewBox="0 0 12 12" fill="none" xmlns="http://www.w3.org/2000/svg">
<path d="M5.53848 6.46156C5.78852 6.46156 6.00496 6.37041 6.18753 6.18756C6.37015 6.00496 6.46169 5.7885 6.46169 5.53856V0.923127C6.46169 0.673067 6.37025 0.456752 6.18753 0.274157C6.00499 0.0913605 5.78852 0 5.53848 0C5.28842 0 5.07211 0.0914615 4.88941 0.274157C4.70672 0.456752 4.61536 0.673168 4.61536 0.923127V5.53859C4.61536 5.78852 4.70672 6.00496 4.88941 6.18758C5.07211 6.37041 5.2885 6.46156 5.53848 6.46156Z" fill="white"/>
<path d="M10.4965 3.98803C10.1094 3.21406 9.56502 2.56499 8.86313 2.041C8.66121 1.88717 8.43285 1.82706 8.17804 1.86068C7.9232 1.89435 7.72129 2.01453 7.57226 2.22119C7.41841 2.42309 7.35963 2.65024 7.3956 2.90265C7.43155 3.15518 7.55067 3.35824 7.75258 3.51209C8.22353 3.86783 8.58794 4.30298 8.84502 4.8174C9.10225 5.33177 9.23072 5.87991 9.23072 6.46151C9.23072 6.96166 9.13337 7.43872 8.9387 7.89312C8.74406 8.34745 8.48076 8.7404 8.14899 9.07217C7.81722 9.40384 7.42437 9.66704 6.96997 9.86178C6.51564 10.0565 6.03848 10.154 5.53849 10.154C5.03857 10.154 4.56138 10.0565 4.10705 9.86178C3.65268 9.66704 3.2597 9.40384 2.92793 9.07217C2.59631 8.7404 2.33306 8.34747 2.13832 7.89312C1.94363 7.43872 1.84625 6.96166 1.84625 6.46151C1.84625 5.87991 1.97487 5.33184 2.23205 4.8174C2.48926 4.30304 2.85344 3.8679 3.32457 3.51209C3.52648 3.35813 3.64543 3.15511 3.68155 2.90265C3.71759 2.65034 3.65874 2.42309 3.50486 2.22119C3.35581 2.01453 3.15518 1.89432 2.90272 1.86068C2.65029 1.82703 2.42066 1.88717 2.21397 2.041C1.51198 2.56499 0.967608 3.21406 0.580519 3.98803C0.193456 4.76211 0 5.5866 0 6.46154C0 7.21164 0.146652 7.9279 0.439879 8.61059C0.733208 9.29328 1.12737 9.88211 1.62264 10.3774C2.11776 10.8725 2.70672 11.2669 3.38946 11.5599C4.07215 11.8532 4.78848 12 5.53846 12C6.28847 12 7.00478 11.8532 7.68749 11.5599C8.37026 11.2668 8.95919 10.8725 9.45438 10.3774C9.9495 9.88226 10.3437 9.29328 10.6369 8.61059C10.9302 7.9279 11.0767 7.21147 11.0767 6.46154C11.0768 5.58658 10.8836 4.76209 10.4965 3.98803Z" fill="white"/>
</svg>
