<svg width="45" height="38" viewBox="0 0 45 38" fill="none" xmlns="http://www.w3.org/2000/svg">
<path d="M0 0L5 4H0V0Z" fill="#3D8037"/>
<path d="M40 33.5L45 38H40V33.5Z" fill="#3D8037"/>
<path d="M44.995 37.9892L0.0136708 0.005H18.2126L44.995 21.3774V37.9892Z" fill="#3D8037" stroke="black" stroke-width="0.01"/>
<path d="M17.1611 6.36969C16.7497 5.73911 16.5174 5.20143 16.4643 4.75664C16.4153 4.31156 16.5364 3.92057 16.8276 3.58367C17.1571 3.20244 17.581 3.01895 18.0992 3.03318C18.6216 3.04712 19.1266 3.26483 19.6142 3.68632C19.9467 3.9737 20.187 4.29374 20.3352 4.64645C20.4856 5.00108 20.534 5.35273 20.4805 5.70142C20.4291 6.05203 20.2875 6.36143 20.0557 6.62961L19.4141 6.07497C19.667 5.7824 19.7722 5.47254 19.7297 5.14537C19.6891 4.81599 19.4993 4.50474 19.1601 4.21161C18.8454 3.93956 18.539 3.79671 18.241 3.78308C17.9471 3.76915 17.6939 3.88519 17.4812 4.13121C17.3107 4.32847 17.2492 4.56766 17.2966 4.84877C17.3482 5.12957 17.5257 5.49988 17.8292 5.95969C18.1349 6.42142 18.3414 6.8187 18.4486 7.15153C18.5601 7.48407 18.5915 7.78815 18.543 8.06377C18.4968 8.34131 18.3673 8.60309 18.1546 8.84912C17.8155 9.24142 17.3905 9.42396 16.8797 9.39673C16.3707 9.36728 15.8602 9.13127 15.3483 8.68871C15.0158 8.40133 14.7601 8.06994 14.5812 7.69454C14.4041 7.31693 14.3327 6.94929 14.367 6.59162C14.4034 6.23586 14.5433 5.91725 14.7866 5.63576L15.4283 6.1904C15.1754 6.48297 15.0826 6.80751 15.1501 7.16401C15.2217 7.52021 15.4382 7.85446 15.7994 8.16674C16.1363 8.45795 16.4539 8.61244 16.7523 8.63021C17.0506 8.64798 17.3022 8.53828 17.5072 8.30112C17.7122 8.06397 17.7872 7.80927 17.732 7.53702C17.6789 7.26257 17.4885 6.87346 17.1611 6.36969ZM20.3444 12.2697C19.8618 12.3443 19.3888 12.1813 18.9256 11.7809C18.5421 11.4495 18.3453 11.0858 18.3352 10.6898C18.3293 10.2935 18.5139 9.87606 18.8891 9.43751L20.9122 7.09697L21.5273 7.62862L19.5185 9.95254C19.0472 10.4978 19.0332 10.962 19.4765 11.3452C19.9464 11.7513 20.4102 11.8464 20.8681 11.6303L23.1298 9.01379L23.7448 9.54545L20.6354 13.1427L20.0502 12.6369L20.3444 12.2697ZM23.3923 14.7648C23.6117 14.9545 23.8609 15.0537 24.1399 15.0625C24.4188 15.0713 24.6534 14.9836 24.8436 14.7995L25.4254 15.3024C25.2361 15.4989 24.9956 15.6338 24.7039 15.7069C24.4122 15.7801 24.1088 15.7772 23.7936 15.6983C23.4806 15.6214 23.2021 15.4776 22.9583 15.2668C22.4685 14.8434 22.2192 14.3433 22.2105 13.7665C22.2059 13.1894 22.4489 12.6172 22.9393 12.0498L23.0284 11.9467C23.3311 11.5965 23.6646 11.3407 24.0288 11.1792C24.393 11.0177 24.7599 10.965 25.1296 11.0212C25.5014 11.0793 25.8514 11.2502 26.1794 11.5337C26.5828 11.8824 26.8131 12.2925 26.8702 12.764C26.9296 13.2374 26.8014 13.6746 26.4858 14.0756L25.904 13.5727C26.0874 13.3246 26.1635 13.0574 26.1323 12.7709C26.1052 12.4842 25.9753 12.2402 25.7426 12.0391C25.4301 11.7689 25.0897 11.6722 24.7214 11.7488C24.3572 11.8252 23.9912 12.0761 23.6234 12.5016L23.5228 12.618C23.1645 13.0325 22.974 13.4254 22.9511 13.7968C22.9283 14.1682 23.0753 14.4908 23.3923 14.7648ZM26.9563 17.8455C27.1757 18.0352 27.4249 18.1344 27.7039 18.1432C27.9828 18.152 28.2174 18.0643 28.4076 17.8802L28.9894 18.3831C28.8001 18.5796 28.5596 18.7145 28.2679 18.7876C27.9762 18.8608 27.6728 18.8579 27.3576 18.7791C27.0446 18.7021 26.7662 18.5583 26.5223 18.3475C26.0325 17.9241 25.7832 17.424 25.7745 16.8472C25.7699 16.2702 26.0129 15.6979 26.5033 15.1305L26.5924 15.0274C26.8951 14.6772 27.2286 14.4214 27.5928 14.2599C27.957 14.0984 28.3239 14.0457 28.6936 14.1019C29.0654 14.1601 29.4154 14.3309 29.7434 14.6144C30.1468 14.9631 30.3771 15.3732 30.4342 15.8447C30.4936 16.3181 30.3654 16.7553 30.0498 17.1563L29.468 16.6534C29.6514 16.4053 29.7275 16.1381 29.6963 15.8516C29.6692 15.5649 29.5393 15.3209 29.3066 15.1198C28.9941 14.8496 28.6537 14.7529 28.2854 14.8295C27.9212 14.9059 27.5552 15.1568 27.1874 15.5824L27.0868 15.6987C26.7285 16.1132 26.538 16.5061 26.5151 16.8775C26.4923 17.2489 26.6393 17.5716 26.9563 17.8455ZM30.1362 21.4714C29.6486 21.0499 29.3898 20.5473 29.3598 19.9638C29.3318 19.378 29.5496 18.8169 30.0132 18.2806L30.1109 18.1675C30.4194 17.8107 30.7619 17.5511 31.1385 17.3887C31.5192 17.226 31.8995 17.1713 32.2793 17.2247C32.6633 17.2778 32.9982 17.4279 33.2842 17.675C33.7518 18.0793 33.9822 18.5475 33.9752 19.0798C33.9682 19.612 33.7166 20.1651 33.2204 20.7392L32.9991 20.9952L30.5622 18.8887C30.2645 19.251 30.1194 19.6271 30.127 20.017C30.1388 20.4067 30.2975 20.7337 30.6034 20.9981C30.8206 21.1858 31.0429 21.3005 31.2703 21.3421C31.4976 21.3838 31.731 21.3803 31.9705 21.3317L32.0933 21.949C31.3915 22.1517 30.7391 21.9925 30.1362 21.4714ZM32.8473 18.1804C32.5991 17.9658 32.3122 17.8766 31.9867 17.9127C31.663 17.9466 31.3404 18.1093 31.0189 18.4006L32.8209 19.9582L32.8611 19.9116C33.1135 19.5838 33.2381 19.2694 33.2349 18.9685C33.2336 18.6653 33.1044 18.4026 32.8473 18.1804ZM35.2308 24.0918C35.3745 23.9256 35.4224 23.7424 35.3747 23.5423C35.331 23.342 35.1817 23.0735 34.9266 22.7368C34.6738 22.4021 34.4956 22.1087 34.3921 21.8566C34.2909 21.6064 34.2514 21.3787 34.2739 21.1735C34.2986 20.9703 34.3876 20.78 34.5408 20.6026C34.7956 20.3079 35.1353 20.1658 35.5598 20.1765C35.9865 20.1891 36.3938 20.363 36.7817 20.6983C37.1895 21.0508 37.4287 21.4415 37.4994 21.8705C37.5723 22.3014 37.467 22.6808 37.1834 23.0089L36.565 22.4743C36.7106 22.3059 36.7641 22.0984 36.7254 21.852C36.6889 21.6075 36.5621 21.3914 36.3449 21.2036C36.121 21.0101 35.9038 20.9075 35.6931 20.8958C35.4825 20.8841 35.3092 20.957 35.1731 21.1144C35.0448 21.2629 35.0067 21.4256 35.0591 21.6025C35.1114 21.7794 35.2608 22.0343 35.5073 22.3674C35.756 22.7025 35.9344 23 36.0427 23.2601C36.1509 23.5201 36.192 23.7571 36.166 23.9708C36.1442 24.1843 36.0499 24.3874 35.8832 24.5802C35.6054 24.9016 35.2537 25.0487 34.828 25.0215C34.4042 24.9921 33.9873 24.8002 33.5772 24.4457C33.2891 24.1967 33.0783 23.9254 32.9448 23.6318C32.8112 23.3383 32.7599 23.046 32.7906 22.7551C32.8255 22.4638 32.9349 22.2118 33.1189 21.9991L33.7339 22.5307C33.5668 22.7464 33.5071 22.9813 33.5546 23.2354C33.6063 23.4892 33.7585 23.7253 34.0112 23.9437C34.2439 24.1449 34.4703 24.2593 34.6904 24.2869C34.9146 24.3142 35.0948 24.2492 35.2308 24.0918ZM38.7416 27.1265C38.8853 26.9603 38.9333 26.7771 38.8855 26.5771C38.8418 26.3767 38.6925 26.1082 38.4374 25.7716C38.1846 25.4368 38.0064 25.1434 37.9029 24.8913C37.8017 24.6411 37.7623 24.4134 37.7847 24.2083C37.8094 24.005 37.8984 23.8147 38.0516 23.6374C38.3065 23.3426 38.6461 23.2005 39.0706 23.2112C39.4973 23.2238 39.9046 23.3977 40.2925 23.733C40.7003 24.0855 40.9396 24.4762 41.0102 24.9052C41.0831 25.3361 40.9778 25.7156 40.6942 26.0436L40.0758 25.5091C40.2214 25.3406 40.2749 25.1332 40.2362 24.8867C40.1997 24.6422 40.0729 24.4261 39.8557 24.2383C39.6318 24.0448 39.4146 23.9422 39.2039 23.9306C38.9933 23.9189 38.82 23.9917 38.6839 24.1491C38.5556 24.2976 38.5176 24.4603 38.5699 24.6372C38.6222 24.8141 38.7716 25.0691 39.0181 25.4022C39.2668 25.7372 39.4453 26.0347 39.5535 26.2948C39.6617 26.5549 39.7028 26.7918 39.6768 27.0055C39.655 27.219 39.5607 27.4221 39.394 27.615C39.1162 27.9363 38.7645 28.0834 38.3388 28.0562C37.915 28.0268 37.4981 27.8349 37.088 27.4805C36.7999 27.2314 36.5891 26.9601 36.4556 26.6666C36.3221 26.373 36.2707 26.0808 36.3014 25.7898C36.3363 25.4986 36.4458 25.2466 36.6297 25.0338L37.2447 25.5654C37.0776 25.7811 37.0179 26.016 37.0654 26.2701C37.1171 26.5239 37.2693 26.76 37.522 26.9784C37.7547 27.1796 37.9811 27.294 38.2012 27.3216C38.4255 27.3489 38.6056 27.2839 38.7416 27.1265Z" fill="white"/>
</svg>
