<svg width="24" height="24" viewBox="0 0 24 24" fill="none" xmlns="http://www.w3.org/2000/svg">
<path d="M0 0L2.66667 2.52632H0V0Z" fill="#375D80"/>
<path d="M21.3334 21.1579L24 24H21.3334V21.1579Z" fill="#375D80"/>
<path d="M23.995 23.9879L0.0120711 0.005H9.71231L23.995 13.5022V23.9879Z" fill="#4077AA" stroke="black" stroke-width="0.01"/>
<path d="M12.1548 7.7941L10.894 6.52334L9.55672 7.85009L9.16055 7.45076L12.1888 4.4465L14.0499 6.32249L13.7213 6.6485L12.2563 5.17184L11.2206 6.19939L12.4813 7.47016L12.1548 7.7941ZM14.367 8.88841C14.319 8.82055 14.2612 8.75265 14.1938 8.6847C13.9435 8.43236 13.6661 8.36772 13.3618 8.49081L11.7645 10.0755L11.3828 9.69071L13.6331 7.45815L14.0046 7.83252L13.7508 8.09668C14.077 8.0234 14.355 8.10253 14.5847 8.33408C14.659 8.40895 14.7057 8.47543 14.7248 8.53351L14.367 8.88841ZM13.6584 12.0676C13.3557 11.7626 13.2093 11.4153 13.2192 11.0259C13.2304 10.6351 13.4038 10.2733 13.7393 9.94037L13.81 9.87022C14.0333 9.64875 14.2742 9.49365 14.5328 9.4049C14.7942 9.31617 15.0497 9.29923 15.2995 9.35408C15.552 9.40895 15.767 9.52581 15.9444 9.70467C16.2347 9.99723 16.3639 10.3202 16.3321 10.6737C16.3004 11.0271 16.1049 11.3819 15.7458 11.7382L15.5856 11.8971L14.0732 10.3726C13.8569 10.5982 13.7413 10.8408 13.7264 11.1004C13.7143 11.36 13.8032 11.5855 13.993 11.7768C14.1279 11.9127 14.2698 12.0003 14.4188 12.0395C14.5678 12.0788 14.7231 12.0884 14.8848 12.0683L14.9349 12.4849C14.458 12.5838 14.0325 12.4447 13.6584 12.0676ZM15.6283 10.0183C15.4743 9.86301 15.2881 9.78908 15.0699 9.7965C14.853 9.80254 14.6303 9.89419 14.4017 10.0714L15.5201 11.1987L15.5492 11.1698C15.7337 10.9648 15.8325 10.7621 15.8458 10.5619C15.8604 10.3604 15.7879 10.1791 15.6283 10.0183ZM15.8992 14.3263C15.5965 14.0212 15.4502 13.674 15.46 13.2846C15.4712 12.8938 15.6446 12.5319 15.9801 12.199L16.0508 12.1289C16.2741 11.9074 16.515 11.7523 16.7736 11.6636C17.035 11.5748 17.2905 11.5579 17.5403 11.6128C17.7928 11.6676 18.0078 11.7845 18.1853 11.9633C18.4755 12.2559 18.6047 12.5789 18.573 12.9323C18.5412 13.2858 18.3457 13.6406 17.9866 13.9969L17.8265 14.1558L16.314 12.6313C16.0977 12.8569 15.9821 13.0995 15.9672 13.3591C15.9552 13.6187 16.044 13.8442 16.2339 14.0355C16.3687 14.1714 16.5106 14.259 16.6596 14.2982C16.8086 14.3375 16.9639 14.3471 17.1256 14.327L17.1757 14.7436C16.6988 14.8425 16.2733 14.7034 15.8992 14.3263ZM17.8691 12.277C17.7151 12.1217 17.5289 12.0477 17.3107 12.0552C17.0938 12.0612 16.8711 12.1529 16.6425 12.3301L17.7609 13.4574L17.79 13.4285C17.9745 13.2234 18.0733 13.0208 18.0866 12.8206C18.1012 12.619 18.0287 12.4378 17.8691 12.277Z" fill="white"/>
</svg>
