<svg width="45" height="38" viewBox="0 0 45 38" fill="none" xmlns="http://www.w3.org/2000/svg">
<path d="M0 0L5 4H0V0Z" fill="#375D80"/>
<path d="M40 33.5L45 38H40V33.5Z" fill="#375D80"/>
<path d="M44.995 37.9892L0.0136708 0.005H18.2126L44.995 21.3774V37.9892Z" fill="#80B8E4" stroke="black" stroke-width="0.01"/>
<path d="M18.1119 6.82617L16.73 8.42495L15.9823 7.77867L19.7016 3.47585L21.3477 4.8987C21.8284 5.31423 22.1015 5.76886 22.1669 6.2626C22.2344 6.75804 22.0901 7.21164 21.7342 7.6234C21.3697 8.04502 20.9473 8.25298 20.4669 8.24731C19.9884 8.24334 19.4999 8.02593 19.0015 7.59507L18.1119 6.82617ZM18.6305 6.22626L19.5289 7.00282C19.7949 7.23273 20.0514 7.34607 20.2986 7.34287C20.5475 7.33769 20.7741 7.21689 20.9785 6.98047C21.1794 6.748 21.2686 6.50149 21.2459 6.24097C21.225 5.97847 21.0921 5.73796 20.8473 5.51945L19.9282 4.725L18.6305 6.22626ZM21.0999 12.3056C20.6448 11.9122 20.3989 11.45 20.3621 10.9191C20.329 10.388 20.5185 9.88398 20.9306 9.4072L21.0073 9.31855C21.2832 8.99938 21.5903 8.76749 21.9287 8.62286C22.2708 8.47797 22.6137 8.43181 22.9572 8.48436C23.3007 8.53692 23.6094 8.68156 23.8833 8.91827C24.3187 9.29463 24.5345 9.72389 24.5308 10.206C24.5291 10.6899 24.3086 11.186 23.8692 11.6943L23.6188 11.9839L21.5295 10.1779C21.323 10.4606 21.2301 10.7452 21.251 11.0317C21.2738 11.3199 21.4024 11.5654 21.6368 11.768C21.9659 12.0524 22.3488 12.151 22.7855 12.0639L22.8533 12.7679C22.5601 12.8483 22.2601 12.8489 21.9534 12.7697C21.6504 12.6902 21.3659 12.5355 21.0999 12.3056ZM23.3822 9.49199C23.1852 9.32169 22.966 9.2527 22.7246 9.28503C22.4853 9.31906 22.2424 9.44473 21.996 9.66205L23.3643 10.8448L23.4103 10.7916C23.6023 10.5376 23.6949 10.301 23.6882 10.0818C23.6832 9.86059 23.5812 9.66399 23.3822 9.49199ZM26.4239 11.2177L26.1253 11.6049C26.6087 11.5236 27.0424 11.649 27.4266 11.9811C28.0925 12.5567 28.1019 13.2309 27.4546 14.0035L25.6282 16.1165L24.91 15.4958L26.7007 13.4242C26.8761 13.2212 26.9612 13.0332 26.956 12.86C26.9545 12.6866 26.8542 12.5138 26.6553 12.3418C26.3656 12.0915 26.0367 12.036 25.6683 12.1755L23.7014 14.451L22.9832 13.8302L25.7472 10.6327L26.4239 11.2177ZM27.6305 15.0126C28.0562 14.5201 28.512 14.2239 28.9976 14.1239C29.485 14.022 29.9208 14.1371 30.305 14.4692C30.6439 14.7621 30.8155 15.117 30.82 15.5339L32.2352 13.8967L32.9533 14.5175L29.0296 19.0567L28.3795 18.4947L28.6301 18.1331C28.1906 18.2075 27.7915 18.0898 27.433 17.7798C27.0586 17.4563 26.8855 17.0433 26.9136 16.5409C26.9436 16.0402 27.1826 15.5308 27.6305 15.0126ZM28.295 15.6954C28.014 16.0205 27.8563 16.3283 27.8221 16.6188C27.7915 16.9091 27.8915 17.1538 28.122 17.3531C28.4155 17.6068 28.7435 17.6614 29.106 17.5169L30.2861 16.1516C30.3755 15.7814 30.2734 15.4694 29.9799 15.2156C29.7474 15.0147 29.4881 14.9523 29.2019 15.0285C28.9174 15.1027 28.6151 15.3251 28.295 15.6954ZM30.5427 20.3646L29.8246 19.7439L32.5885 16.5463L33.3067 17.1671L30.5427 20.3646ZM33.262 15.6776C33.3574 15.5673 33.4711 15.5054 33.603 15.4922C33.737 15.4806 33.8689 15.531 33.999 15.6434C34.129 15.7558 34.198 15.8791 34.2059 16.0133C34.2138 16.1475 34.1701 16.2697 34.0747 16.3801C33.9811 16.4884 33.8673 16.5484 33.7333 16.56C33.6011 16.5696 33.47 16.5182 33.3399 16.4058C33.2099 16.2934 33.1401 16.1711 33.1305 16.0389C33.1245 15.9064 33.1684 15.7859 33.262 15.6776ZM34.7577 18.4213L34.4591 18.8086C34.9424 18.7273 35.3762 18.8527 35.7604 19.1848C36.4263 19.7604 36.4356 20.4345 35.7884 21.2072L33.9619 23.3202L33.2438 22.6994L35.0345 20.6278C35.2099 20.4249 35.295 20.2368 35.2898 20.0637C35.2882 19.8902 35.188 19.7175 34.989 19.5455C34.6994 19.2952 34.3704 19.2397 34.0021 19.3791L32.0351 21.6546L31.317 21.0339L34.0809 17.8363L34.7577 18.4213ZM35.9731 22.224C36.4023 21.7275 36.8608 21.432 37.3487 21.3374C37.8403 21.2426 38.2792 21.362 38.6654 21.6958C39.0298 22.0109 39.2066 22.3857 39.1958 22.8204L39.5067 22.5264L40.1539 23.0858L37.4743 26.1858C37.1115 26.6055 36.6944 26.8232 36.2229 26.8391C35.7534 26.8566 35.297 26.6738 34.8537 26.2906C34.6193 26.0879 34.4323 25.8403 34.2929 25.5476C34.1537 25.2587 34.0941 24.9851 34.1141 24.727L34.8269 24.5893C34.8211 25.0421 34.9797 25.4081 35.3028 25.6874C35.5412 25.8935 35.7855 25.9911 36.0358 25.9803C36.2844 25.9714 36.5169 25.8419 36.7332 25.5917L36.9196 25.376C36.5135 25.4277 36.1381 25.3045 35.7933 25.0065C35.419 24.6829 35.2412 24.2693 35.26 23.7658C35.2807 23.2639 35.5184 22.75 35.9731 22.224ZM36.6346 22.9042C36.357 23.2253 36.2032 23.5347 36.1732 23.8323C36.1468 24.1296 36.2498 24.3788 36.4823 24.5797C36.7719 24.8301 37.094 24.8916 37.4484 24.7642L38.6644 23.3575C38.7379 22.9977 38.6298 22.6926 38.3402 22.4423C38.1038 22.2379 37.8387 22.1723 37.5449 22.2453C37.2531 22.3201 36.9497 22.5397 36.6346 22.9042Z" fill="white"/>
</svg>
