<svg width="24" height="24" xmlns="http://www.w3.org/2000/svg">

 <g>
  <title>Layer 1</title>
  <path id="svg_1" fill="#231F20" d="m0,0l2.66667,2.52632l-2.66667,0l0,-2.52632z"/>
  <path id="svg_2" fill="#231F20" d="m21.3334,21.1579l2.6666,2.8421l-2.6666,0l0,-2.8421z"/>
  <path id="svg_3" stroke-width="0.01" stroke="black" fill="#231F20" d="m23.995,23.9879l-23.98293,-23.9829l9.70024,0l14.28269,13.4972l0,10.4857z"/>
  <path transform="rotate(0.214191 -52.8809 10.3605)" id="svg_4" fill="white" d="m-54.59519,8.5441l-1.2608,-1.27076l-1.33728,1.32675l-0.39617,-0.39933l3.02825,-3.00426l1.8611,1.87599l-0.3286,0.32601l-1.465,-1.47666l-1.0357,1.02755l1.2607,1.27077l-0.3265,0.32394zm2.2122,1.09431c-0.048,-0.06786 -0.1058,-0.13576 -0.1732,-0.20371c-0.2503,-0.25234 -0.5277,-0.31698 -0.832,-0.19389l-1.5973,1.58469l-0.3817,-0.38479l2.2503,-2.23256l0.3715,0.37437l-0.2538,0.26416c0.3262,-0.07328 0.6042,0.00585 0.8339,0.2374c0.0743,0.07487 0.121,0.14135 0.1401,0.19943l-0.3578,0.3549zm-0.7086,3.17919c-0.3027,-0.305 -0.4491,-0.6523 -0.4392,-1.0417c0.0112,-0.3908 0.1846,-0.7526 0.5201,-1.08553l0.0707,-0.07015c0.2233,-0.22147 0.4642,-0.37657 0.7228,-0.46532c0.2614,-0.08873 0.5169,-0.10567 0.7667,-0.05082c0.2525,0.05487 0.4675,0.17173 0.6449,0.35059c0.2903,0.29256 0.4195,0.61553 0.3877,0.96903c-0.0317,0.3534 -0.2272,0.7082 -0.5863,1.0645l-0.1602,0.1589l-1.5124,-1.5245c-0.2163,0.2256 -0.3319,0.4682 -0.3468,0.7278c-0.0121,0.2596 0.0768,0.4851 0.2666,0.6764c0.1349,0.1359 0.2768,0.2235 0.4258,0.2627c0.149,0.0393 0.3043,0.0489 0.466,0.0288l0.0501,0.4166c-0.4769,0.0989 -0.9024,-0.0402 -1.2765,-0.4173zm1.9699,-2.0493c-0.154,-0.15529 -0.3402,-0.22922 -0.5584,-0.2218c-0.2169,0.00604 -0.4396,0.09769 -0.6682,0.2749l1.1184,1.1273l0.0291,-0.0289c0.1845,-0.205 0.2833,-0.4077 0.2966,-0.6079c0.0146,-0.2015 -0.0579,-0.3828 -0.2175,-0.5436zm0.2709,4.308c-0.3027,-0.3051 -0.449,-0.6523 -0.4392,-1.0417c0.0112,-0.3908 0.1846,-0.7527 0.5201,-1.0856l0.0707,-0.0701c0.2233,-0.2215 0.4642,-0.3766 0.7228,-0.4653c0.2614,-0.0888 0.5169,-0.1057 0.7667,-0.0508c0.2525,0.0548 0.4675,0.1717 0.645,0.3505c0.2902,0.2926 0.4194,0.6156 0.3877,0.969c-0.0318,0.3535 -0.2273,0.7083 -0.5864,1.0646l-0.1601,0.1589l-1.5125,-1.5245c-0.2163,0.2256 -0.3319,0.4682 -0.3468,0.7278c-0.012,0.2596 0.0768,0.4851 0.2667,0.6764c0.1348,0.1359 0.2767,0.2235 0.4257,0.2627c0.149,0.0393 0.3043,0.0489 0.466,0.0288l0.0501,0.4166c-0.4769,0.0989 -0.9024,-0.0402 -1.2765,-0.4173zm1.9699,-2.0493c-0.154,-0.1553 -0.3402,-0.2293 -0.5584,-0.2218c-0.2169,0.006 -0.4396,0.0977 -0.6682,0.2749l1.1184,1.1273l0.0291,-0.0289c0.1845,-0.2051 0.2833,-0.4077 0.2966,-0.6079c0.0146,-0.2016 -0.0579,-0.3828 -0.2175,-0.5436z"/>
  <text transform="rotate(44.9334 13.8516 8.94531)" style="cursor: move;" font-weight="bold" xml:space="preserve" text-anchor="start" font-family="sans-serif" font-size="5" id="svg_5" y="10.75" x="9.625" stroke-width="0" stroke="black" fill="#ffffff">Hot</text>
 </g>
</svg>