<svg width="47" height="39" viewBox="0 0 47 39" fill="none" xmlns="http://www.w3.org/2000/svg">
<path d="M0 1L5 5H0V1Z" fill="#9A0000"/>
<path d="M40 34.5L45 39H40V34.5Z" fill="#9A0000"/>
<path d="M44.995 38.9892L0.0136708 1.005H18.2126L44.995 22.3774V38.9892Z" fill="#9A0000" stroke="black" stroke-width="0.01"/>
<path d="M17.7581 8.83638C17.2557 9.29664 16.7242 9.52847 16.1637 9.53185C15.6072 9.53494 15.0653 9.30849 14.5378 8.85252C13.9659 8.35822 13.6843 7.75662 13.693 7.04771C13.7039 6.34071 14.0063 5.64367 14.6002 4.95657L15.0026 4.49113C15.3915 4.04119 15.8132 3.71453 16.2679 3.51114C16.7247 3.30967 17.1791 3.24547 17.631 3.31853C18.0848 3.38938 18.5056 3.59244 18.8935 3.92772C19.4077 4.3722 19.6954 4.87262 19.7566 5.42897C19.8198 5.98311 19.6575 6.536 19.2697 7.08762L18.6281 6.53298C18.906 6.09942 19.0266 5.71574 18.9899 5.38193C18.9554 5.05003 18.7719 4.74039 18.4394 4.45301C18.0316 4.10049 17.581 3.97437 17.0878 4.07463C16.5967 4.17682 16.1107 4.50607 15.6298 5.06239L15.2246 5.53117C14.7706 6.05646 14.5191 6.56909 14.4704 7.06906C14.4216 7.56903 14.5944 7.98952 14.9889 8.33055C15.3436 8.63709 15.6841 8.79199 16.0104 8.79526C16.3409 8.79822 16.7096 8.62705 17.1165 8.28174L17.7581 8.83638ZM19.4293 12.9645C19.4551 12.8629 19.5355 12.7117 19.6704 12.5108C19.1278 12.5607 18.6581 12.4141 18.2613 12.0712C17.9067 11.7646 17.7015 11.413 17.6456 11.0161C17.5939 10.619 17.7012 10.2664 17.9675 9.95835C18.2913 9.58377 18.6841 9.41604 19.146 9.45514C19.612 9.49394 20.1032 9.73654 20.6196 10.1829L21.218 10.7002L21.4623 10.4176C21.6482 10.2026 21.7314 9.97641 21.7121 9.73896C21.6946 9.49928 21.5607 9.2712 21.3102 9.05471C21.0908 8.86504 20.8589 8.76143 20.6146 8.74389C20.3704 8.72635 20.1802 8.79626 20.0442 8.95363L19.4258 8.4191C19.581 8.23957 19.7936 8.12129 20.0636 8.06426C20.3378 8.00694 20.6256 8.02339 20.9271 8.11362C21.2308 8.20577 21.5135 8.36488 21.775 8.59095C22.1895 8.94922 22.4241 9.33406 22.479 9.74549C22.5357 10.1547 22.4115 10.5449 22.1061 10.916L20.675 12.5717C20.3895 12.902 20.2046 13.201 20.1202 13.4688L20.0742 13.522L19.4293 12.9645ZM18.8138 11.6135C19.0066 11.7802 19.2326 11.8884 19.4917 11.9381C19.7508 11.9878 19.9881 11.9663 20.2036 11.8738L20.8416 11.1358L20.3595 10.7191C19.6059 10.0677 19.0385 9.96249 18.6572 10.4036C18.4906 10.5964 18.4246 10.8027 18.4592 11.0224C18.4939 11.2421 18.6121 11.4392 18.8138 11.6135ZM24.6033 11.1519L24.2324 11.6213C24.8061 11.5131 25.3146 11.6506 25.7579 12.0338C26.5181 12.6909 26.5309 13.4512 25.7961 14.3147L23.7413 16.6918L23.1262 16.1602L25.1839 13.7797C25.4058 13.5185 25.5117 13.2751 25.5015 13.0494C25.4936 12.8257 25.3666 12.6075 25.1205 12.3948C24.9211 12.2224 24.7 12.1242 24.4573 12.1003C24.2146 12.0764 23.9765 12.1145 23.7428 12.2146L21.5271 14.7779L20.912 14.2462L24.0215 10.649L24.6033 11.1519ZM26.4882 18.3053C26.7077 18.495 26.9569 18.5942 27.2358 18.603C27.5148 18.6118 27.7494 18.5241 27.9395 18.34L28.5213 18.8429C28.3321 19.0394 28.0916 19.1743 27.7999 19.2474C27.5082 19.3206 27.2047 19.3177 26.8895 19.2389C26.5765 19.1619 26.2981 19.0181 26.0543 18.8073C25.5645 18.3839 25.3152 17.8838 25.3065 17.3071C25.3019 16.73 25.5448 16.1577 26.0353 15.5903L26.1244 15.4872C26.4271 15.137 26.7605 14.8812 27.1247 14.7197C27.4889 14.5582 27.8559 14.5055 28.2255 14.5617C28.5974 14.6199 28.9473 14.7907 29.2754 15.0742C29.6788 15.4229 29.909 15.833 29.9662 16.3045C30.0255 16.7779 29.8974 17.2151 29.5818 17.6161L28.9999 17.1132C29.1834 16.8651 29.2595 16.5979 29.2283 16.3114C29.2012 16.0247 29.0713 15.7807 28.8385 15.5796C28.526 15.3094 28.1856 15.2127 27.8173 15.2893C27.4532 15.3657 27.0872 15.6166 26.7193 16.0422L26.6187 16.1585C26.2605 16.573 26.0699 16.9659 26.0471 17.3373C26.0242 17.7087 26.1713 18.0314 26.4882 18.3053ZM29.6682 21.9312C29.1806 21.5097 28.9218 21.0072 28.8918 20.4236C28.8637 19.8378 29.0815 19.2768 29.5451 18.7404L29.6428 18.6273C29.9513 18.2705 30.2938 18.0109 30.6704 17.8485C31.0512 17.6858 31.4314 17.6311 31.8113 17.6845C32.1952 17.7376 32.5302 17.8877 32.8161 18.1348C33.2838 18.5391 33.5141 19.0073 33.5071 19.5396C33.5001 20.0718 33.2485 20.6249 32.7523 21.199L32.5311 21.455L30.0941 19.3485C29.7964 19.7108 29.6514 20.0869 29.659 20.4768C29.6707 20.8665 29.8295 21.1935 30.1354 21.4579C30.3526 21.6456 30.5748 21.7603 30.8022 21.8019C31.0296 21.8436 31.263 21.8401 31.5025 21.7915L31.6252 22.4088C30.9234 22.6115 30.271 22.4523 29.6682 21.9312ZM32.3793 18.6402C32.131 18.4256 31.8442 18.3364 31.5186 18.3725C31.195 18.4064 30.8724 18.5691 30.5509 18.8604L32.3528 20.418L32.393 20.3715C32.6455 20.0436 32.7701 19.7292 32.7669 19.4283C32.7656 19.1251 32.6364 18.8624 32.3793 18.6402ZM32.5117 24.2729L31.8966 23.7413L36.3108 18.6346L36.9258 19.1663L32.5117 24.2729ZM34.9344 26.4833C34.4468 26.0618 34.188 25.5592 34.158 24.9757C34.1299 24.3899 34.3477 23.8289 34.8114 23.2925L34.9091 23.1794C35.2175 22.8226 35.56 22.563 35.9366 22.4006C36.3174 22.2379 36.6977 22.1832 37.0775 22.2366C37.4615 22.2897 37.7964 22.4398 38.0823 22.6869C38.55 23.0912 38.7803 23.5594 38.7733 24.0917C38.7664 24.6239 38.5148 25.177 38.0186 25.7511L37.7973 26.0071L35.3603 23.9006C35.0626 24.2629 34.9176 24.639 34.9252 25.0289C34.9369 25.4186 35.0957 25.7456 35.4016 26.01C35.6188 26.1977 35.8411 26.3124 36.0684 26.354C36.2958 26.3957 36.5292 26.3922 36.7687 26.3436L36.8915 26.9609C36.1896 27.1636 35.5373 27.0044 34.9344 26.4833ZM37.6455 23.1923C37.3973 22.9777 37.1104 22.8885 36.7848 22.9246C36.4612 22.9585 36.1386 23.1212 35.8171 23.4125L37.619 24.9701L37.6593 24.9235C37.9117 24.5957 38.0363 24.2813 38.0331 23.9804C38.0318 23.6772 37.9026 23.4145 37.6455 23.1923ZM38.5406 26.2895C39.0177 25.7376 39.5316 25.4074 40.0825 25.2988C40.6352 25.1879 41.1233 25.3155 41.5466 25.6814C41.9677 26.0454 42.1768 26.4778 42.1737 26.9786L43.7945 25.1035L44.4096 25.6352L39.9954 30.7418L39.4303 30.2533L39.7337 29.8418C39.2271 29.9305 38.7544 29.7853 38.3155 29.4059C37.8989 29.0457 37.7062 28.581 37.7374 28.0117C37.7709 27.4443 38.0253 26.8857 38.5004 26.3361L38.5406 26.2895ZM39.0953 26.891C38.7428 27.2988 38.5512 27.6908 38.5204 28.0669C38.4896 28.443 38.6227 28.7594 38.9197 29.0161C39.3098 29.3533 39.7459 29.4244 40.2282 29.2294L41.6564 27.5771C41.7656 27.0789 41.6296 26.6651 41.2483 26.3356C40.9469 26.075 40.6114 25.9883 40.2418 26.0754C39.8722 26.1625 39.49 26.4344 39.0953 26.891Z" fill="white"/>
</svg>
