<svg width="45" height="38" viewBox="0 0 45 38" fill="none" xmlns="http://www.w3.org/2000/svg">
<path d="M0 0L5 4H0V0Z" fill="black"/>
<path d="M40 33.5L45 38H40V33.5Z" fill="black"/>
<path d="M44.995 37.9892L0.0136708 0.005H18.2126L44.995 21.3774V37.9892Z" fill="#474747" stroke="black" stroke-width="0.01"/>
<path d="M20.1576 8.03163L18.3904 6.50405L17.246 7.82799L19.3117 9.61358L18.7957 10.2105L15.9823 7.77867L19.7016 3.47585L22.4943 5.88984L21.9732 6.49271L19.9282 4.725L18.9013 5.913L20.6685 7.44059L20.1576 8.03163ZM22.3377 9.52365L23.8558 8.99781L24.6538 9.68752L22.314 10.4171L21.9223 12.9132L21.1303 12.2286L21.4371 10.5834L19.8566 11.1276L19.0587 10.4379L21.4718 9.6891L21.8581 7.27098L22.6501 7.95558L22.3377 9.52365ZM26.5328 14.162C26.1054 14.6565 25.6516 14.9544 25.1716 15.0558C24.6933 15.1552 24.265 15.0414 23.8867 14.7144C23.536 14.4113 23.3549 14.0534 23.3433 13.6407L22.0329 15.1567L21.3147 14.5359L25.1414 10.109L25.8033 10.6812L25.5519 11.0318C25.9841 10.9579 26.3814 11.0777 26.744 11.391C27.134 11.7282 27.3134 12.138 27.282 12.6203C27.2543 13.1023 27.0173 13.6014 26.5712 14.1176L26.5328 14.162ZM25.8713 13.4817C26.1472 13.1625 26.302 12.854 26.3357 12.5562C26.3714 12.26 26.2711 12.0098 26.0347 11.8054C25.7411 11.5517 25.4256 11.4906 25.088 11.6222L23.8619 13.0407C23.7773 13.4014 23.8828 13.7094 24.1783 13.9649C24.4069 14.1624 24.6644 14.2249 24.9508 14.1524C25.2409 14.0796 25.5478 13.856 25.8713 13.4817ZM26.5532 16.9161L25.835 16.2953L28.599 13.0978L29.3171 13.7185L26.5532 16.9161ZM29.2725 12.229C29.3678 12.1187 29.4815 12.0569 29.6135 12.0436C29.7474 12.032 29.8794 12.0824 30.0094 12.1948C30.1394 12.3072 30.2084 12.4305 30.2163 12.5647C30.2243 12.6989 30.1805 12.8212 30.0852 12.9315C29.9915 13.0399 29.8777 13.0998 29.7438 13.1114C29.6115 13.121 29.4804 13.0697 29.3504 12.9573C29.2203 12.8449 29.1505 12.7225 29.1409 12.5903C29.1349 12.4578 29.1788 12.3374 29.2725 12.229ZM31.2088 16.4999C31.1278 16.4024 31.0371 16.3102 30.9366 16.2234C30.6076 15.939 30.277 15.8735 29.9447 16.0269L28.0544 18.2137L27.3363 17.593L30.1002 14.3954L30.7859 14.9881L30.4945 15.361C30.908 15.2331 31.2684 15.3019 31.5758 15.5676C31.6782 15.6562 31.751 15.7432 31.7941 15.8287L31.2088 16.4999ZM30.7635 20.6587C30.3084 20.2653 30.0625 19.8032 30.0257 19.2723C29.9926 18.7411 30.1821 18.2372 30.5942 17.7604L30.6709 17.6717C30.9468 17.3526 31.2539 17.1207 31.5923 16.976C31.9344 16.8311 32.2773 16.785 32.6208 16.8375C32.9643 16.8901 33.273 17.0347 33.5469 17.2714C33.9823 17.6478 34.1981 18.0771 34.1944 18.5592C34.1927 19.0431 33.9722 19.5391 33.5328 20.0474L33.2824 20.3371L31.1931 18.531C30.9866 18.8138 30.8937 19.0984 30.9146 19.3849C30.9374 19.6731 31.066 19.9185 31.3004 20.1212C31.6295 20.4056 32.0124 20.5042 32.4491 20.417L32.517 21.1211C32.2237 21.2015 31.9237 21.2021 31.617 21.1228C31.314 21.0433 31.0295 20.8886 30.7635 20.6587ZM33.0458 17.8452C32.8488 17.6749 32.6296 17.6059 32.3883 17.6382C32.1489 17.6722 31.906 17.7979 31.6596 18.0152L33.0279 19.1979L33.0739 19.1447C33.2659 18.8908 33.3585 18.6542 33.3518 18.4349C33.3468 18.2138 33.2448 18.0172 33.0458 17.8452ZM33.9251 20.4537C34.3509 19.9612 34.8066 19.6649 35.2923 19.565C35.7797 19.4631 36.2155 19.5781 36.5996 19.9102C36.9385 20.2031 37.1102 20.5581 37.1147 20.975L38.5298 19.3378L39.248 19.9585L35.3243 24.4978L34.6741 23.9358L34.9248 23.5742C34.4852 23.6486 34.0862 23.5308 33.7276 23.2209C33.3533 22.8973 33.1801 22.4843 33.2082 21.982C33.2383 21.4813 33.4772 20.9719 33.9251 20.4537ZM34.5896 21.1365C34.3086 21.4616 34.151 21.7694 34.1167 22.0599C34.0861 22.3501 34.1861 22.5949 34.4166 22.7941C34.7102 23.0479 35.0382 23.1025 35.4006 22.958L36.5808 21.5926C36.6702 21.2224 36.5681 20.9104 36.2745 20.6567C36.0421 20.4557 35.7827 20.3934 35.4966 20.4696C35.2121 20.5438 34.9098 20.7661 34.5896 21.1365Z" fill="white"/>
</svg>
