<svg width="15" height="17" viewBox="0 0 15 17" fill="none" xmlns="http://www.w3.org/2000/svg">
<path d="M7.37879 8.18896C8.5038 8.18896 9.47785 7.78547 10.2739 6.98937C11.0698 6.19341 11.4734 5.2195 11.4734 4.09435C11.4734 2.9696 11.0699 1.99556 10.2738 1.19933C9.47772 0.403495 8.50367 0 7.37879 0C6.25365 0 5.27974 0.403495 4.48377 1.19946C3.6878 1.99543 3.28418 2.96947 3.28418 4.09435C3.28418 5.2195 3.6878 6.19354 4.48377 6.9895C5.27999 7.78534 6.25404 8.18896 7.37879 8.18896ZM5.1883 1.90386C5.79905 1.2931 6.51551 0.996222 7.37879 0.996222C8.24194 0.996222 8.95853 1.2931 9.56942 1.90386C10.1802 2.51474 10.4772 3.23133 10.4772 4.09435C10.4772 4.95763 10.1802 5.67409 9.56942 6.28498C8.95853 6.89586 8.24194 7.19274 7.37879 7.19274C6.51577 7.19274 5.79931 6.89573 5.1883 6.28498C4.57741 5.67422 4.2804 4.95763 4.2804 4.09435C4.2804 3.23133 4.57741 2.51474 5.1883 1.90386Z" fill="#4077AA"/>
<path d="M14.5433 13.0722C14.5204 12.7409 14.4739 12.3796 14.4056 11.998C14.3366 11.6136 14.2477 11.2501 14.1414 10.918C14.0314 10.5747 13.8821 10.2356 13.6973 9.91073C13.5057 9.57351 13.2806 9.27987 13.0279 9.03824C12.7637 8.78546 12.4402 8.58222 12.0662 8.43397C11.6934 8.28651 11.2803 8.2118 10.8385 8.2118C10.6649 8.2118 10.4971 8.283 10.173 8.49403C9.97348 8.62411 9.74016 8.77457 9.47972 8.94097C9.25702 9.08286 8.95534 9.2158 8.58272 9.33616C8.21917 9.4538 7.85005 9.51346 7.48559 9.51346C7.12139 9.51346 6.75227 9.4538 6.38846 9.33616C6.01622 9.21593 5.71441 9.08299 5.49211 8.9411C5.23414 8.77625 5.00068 8.6258 4.79822 8.4939C4.47436 8.28287 4.30653 8.21167 4.13299 8.21167C3.69097 8.21167 3.27801 8.28651 2.90538 8.4341C2.53159 8.58209 2.20799 8.78533 1.94353 9.03837C1.69088 9.28013 1.46572 9.57364 1.27428 9.91073C1.08972 10.2356 0.940307 10.5745 0.830321 10.9181C0.724098 11.2503 0.635253 11.6136 0.566253 11.998C0.497772 12.379 0.451469 12.7405 0.428513 13.0725C0.405945 13.3972 0.394531 13.7351 0.394531 14.0764C0.394531 14.9638 0.676628 15.6822 1.23291 16.2121C1.78232 16.7349 2.50915 17 3.39331 17H11.5789C12.4628 17 13.1896 16.7349 13.7392 16.2121C14.2956 15.6826 14.5777 14.964 14.5777 14.0763C14.5776 13.7338 14.566 13.3959 14.5433 13.0722ZM13.0523 15.4903C12.6893 15.8358 12.2073 16.0038 11.5788 16.0038H3.39331C2.76466 16.0038 2.2827 15.8358 1.9198 15.4904C1.56377 15.1515 1.39075 14.6889 1.39075 14.0764C1.39075 13.7579 1.40126 13.4434 1.42227 13.1414C1.44276 12.8452 1.48466 12.5198 1.54678 12.174C1.60813 11.8325 1.68621 11.512 1.77907 11.2219C1.86818 10.9437 1.9897 10.6682 2.14042 10.4028C2.28425 10.1499 2.44975 9.93291 2.63237 9.75808C2.80318 9.59453 3.01848 9.46068 3.27217 9.36029C3.5068 9.26742 3.77048 9.21658 4.05673 9.20893C4.09161 9.22748 4.15374 9.26288 4.25439 9.32851C4.45918 9.46197 4.69524 9.61424 4.95619 9.7809C5.25035 9.96845 5.62933 10.1378 6.08211 10.284C6.54501 10.4337 7.01712 10.5097 7.48572 10.5097C7.95432 10.5097 8.42656 10.4337 8.8892 10.2841C9.34237 10.1377 9.72122 9.96845 10.0158 9.78064C10.2828 9.60996 10.5123 9.4621 10.7171 9.32851C10.8177 9.26301 10.8798 9.22748 10.9147 9.20893C11.2011 9.21658 11.4648 9.26742 11.6995 9.36029C11.9531 9.46068 12.1684 9.59466 12.3392 9.75808C12.5218 9.93278 12.6873 10.1498 12.8312 10.4029C12.982 10.6682 13.1037 10.9438 13.1926 11.2217C13.2856 11.5123 13.3638 11.8326 13.425 12.1739C13.487 12.5203 13.5291 12.8458 13.5496 13.1415V13.1418C13.5707 13.4426 13.5813 13.757 13.5815 14.0764C13.5813 14.689 13.4083 15.1515 13.0523 15.4903Z" fill="#4077AA"/>
</svg>
