<svg width="17" height="17" viewBox="0 0 17 17" fill="none" xmlns="http://www.w3.org/2000/svg">
<path d="M8.49998 0C3.80557 0 0 3.80557 0 8.49998C0 13.1944 3.80557 17 8.49998 17C13.1944 17 17 13.1944 17 8.49998C16.995 3.80767 13.1923 0.00501604 8.49998 0ZM8.49998 15.7857C4.47619 15.7857 1.21427 12.5238 1.21427 8.49998C1.21427 4.47619 4.47619 1.21427 8.49998 1.21427C12.5238 1.21427 15.7857 4.47619 15.7857 8.49998C15.7814 12.522 12.522 15.7814 8.49998 15.7857Z" fill="#4077AA"/>
<path d="M12.0797 8.22918C12.0208 8.11114 11.9252 8.01545 11.8071 7.95661L6.94997 5.52803C6.65 5.37815 6.28536 5.49978 6.13545 5.79975C6.09329 5.8841 6.07138 5.97713 6.07141 6.07143V10.9286C6.07127 11.2639 6.34295 11.5358 6.67828 11.536C6.77259 11.5361 6.86562 11.5141 6.94997 11.472L11.8071 9.04341C12.1072 8.89386 12.2293 8.52929 12.0797 8.22918ZM7.28572 9.94623V7.05379L10.1782 8.50001L7.28572 9.94623Z" fill="#4077AA"/>
</svg>
