<svg width="17" height="15" viewBox="0 0 17 15" fill="none" xmlns="http://www.w3.org/2000/svg">
<path d="M5.47722 9.99036H5.478C5.47865 9.99036 5.47929 9.99023 5.47994 9.99023H14.5098C14.7321 9.99023 14.9275 9.84277 14.9886 9.62902L16.9808 2.65636C17.0237 2.50604 16.9936 2.34444 16.8996 2.21967C16.8055 2.09489 16.6582 2.02148 16.502 2.02148H4.3286L3.97257 0.419304C3.92186 0.191421 3.71979 0.0292969 3.48633 0.0292969H0.498047C0.222954 0.0292969 0 0.252251 0 0.527344C0 0.802437 0.222954 1.02539 0.498047 1.02539H3.08685C3.14989 1.3093 4.79059 8.69259 4.88501 9.11736C4.35571 9.34744 3.98438 9.87519 3.98438 10.4883C3.98438 11.3121 4.65466 11.9824 5.47852 11.9824H14.5098C14.7849 11.9824 15.0078 11.7595 15.0078 11.4844C15.0078 11.2093 14.7849 10.9863 14.5098 10.9863H5.47852C5.20394 10.9863 4.98047 10.7629 4.98047 10.4883C4.98047 10.2141 5.20316 9.99101 5.47722 9.99036ZM15.8417 3.01758L14.134 8.99414H5.87799L4.54987 3.01758H15.8417Z" fill="black" fill-opacity="0.3"/>
<path d="M4.98047 13.4766C4.98047 14.3004 5.65076 14.9707 6.47461 14.9707C7.29846 14.9707 7.96875 14.3004 7.96875 13.4766C7.96875 12.6527 7.29846 11.9824 6.47461 11.9824C5.65076 11.9824 4.98047 12.6527 4.98047 13.4766ZM6.47461 12.9785C6.74918 12.9785 6.97266 13.202 6.97266 13.4766C6.97266 13.7511 6.74918 13.9746 6.47461 13.9746C6.20004 13.9746 5.97656 13.7511 5.97656 13.4766C5.97656 13.202 6.20004 12.9785 6.47461 12.9785Z" fill="black" fill-opacity="0.3"/>
<path d="M12.0195 13.4766C12.0195 14.3004 12.6898 14.9707 13.5137 14.9707C14.3375 14.9707 15.0078 14.3004 15.0078 13.4766C15.0078 12.6527 14.3375 11.9824 13.5137 11.9824C12.6898 11.9824 12.0195 12.6527 12.0195 13.4766ZM13.5137 12.9785C13.7882 12.9785 14.0117 13.202 14.0117 13.4766C14.0117 13.7511 13.7882 13.9746 13.5137 13.9746C13.2391 13.9746 13.0156 13.7511 13.0156 13.4766C13.0156 13.202 13.2391 12.9785 13.5137 12.9785Z" fill="black" fill-opacity="0.3"/>
</svg>
