<svg width="27" height="17" viewBox="0 0 27 17" fill="none" xmlns="http://www.w3.org/2000/svg">
<path d="M4.35767 16.7571C4.89398 16.3544 5.00221 15.5933 4.59956 15.057C1.70077 11.1965 1.70077 5.8043 4.59956 1.94397C5.00229 1.40767 4.89398 0.646561 4.35767 0.243828C3.82145 -0.158824 3.06027 -0.0505923 2.65761 0.48571C-0.885871 5.20469 -0.885871 11.7962 2.65761 16.5152C3.06067 17.0522 3.82202 17.1593 4.35767 16.7571Z" fill="#4077AA"/>
<path d="M22.3301 16.7566C22.8653 17.1586 23.6268 17.0521 24.0301 16.5148C27.5736 11.7958 27.5736 5.20424 24.0301 0.485257C23.6275 -0.0510459 22.8663 -0.159359 22.3301 0.243374C21.7938 0.646026 21.6855 1.40721 22.0882 1.94351C24.987 5.80392 24.987 11.1962 22.0882 15.0565C21.6855 15.5928 21.7938 16.3539 22.3301 16.7566Z" fill="#4077AA"/>
<path d="M8.7234 14.2617C9.22295 13.8143 9.26529 13.0466 8.81787 12.547C6.75175 10.2398 6.75175 6.76015 8.81787 4.45304C9.26521 3.95349 9.22295 3.18583 8.7234 2.73841C8.22385 2.29107 7.45627 2.33333 7.00877 2.83288C5.61495 4.38933 4.84729 6.40194 4.84729 8.50004C4.84729 10.5981 5.61487 12.6108 7.00877 14.1672C7.45473 14.6652 8.22223 14.7105 8.7234 14.2617Z" fill="#4077AA"/>
<path d="M17.9643 14.2617C18.4662 14.711 19.2336 14.6645 19.679 14.1672C21.0728 12.6108 21.8405 10.5981 21.8405 8.50004C21.8405 6.40194 21.0729 4.38933 19.679 2.83288C19.2316 2.33333 18.464 2.29107 17.9643 2.73841C17.4648 3.18583 17.4225 3.95349 17.8699 4.45304C19.936 6.76023 19.936 10.2399 17.8699 12.547C17.4225 13.0467 17.4647 13.8143 17.9643 14.2617Z" fill="#4077AA"/>
<path d="M13.3439 12.143C15.3526 12.143 16.9867 10.5089 16.9867 8.50023C16.9867 6.49159 15.3526 4.85742 13.3439 4.85742C11.3353 4.85742 9.70111 6.49159 9.70111 8.50023C9.70111 10.5089 11.3353 12.143 13.3439 12.143ZM13.3439 7.28596C14.0135 7.28596 14.5582 7.83068 14.5582 8.50023C14.5582 9.16978 14.0135 9.7145 13.3439 9.7145C12.6744 9.7145 12.1297 9.16978 12.1297 8.50023C12.1297 7.83068 12.6744 7.28596 13.3439 7.28596Z" fill="#4077AA"/>
</svg>