<svg width="17" height="11" viewBox="0 0 17 11" fill="none" xmlns="http://www.w3.org/2000/svg">
<path d="M2.77582 10.6744C3.11745 10.4179 3.18639 9.93303 2.9299 9.59141C1.08338 7.13234 1.08338 3.6975 2.9299 1.23848C3.18644 0.896856 3.11745 0.412034 2.77582 0.155495C2.43425 -0.100993 1.94938 -0.0320499 1.69289 0.309573C-0.564297 3.31555 -0.564297 7.51434 1.69289 10.5203C1.94964 10.8624 2.43461 10.9306 2.77582 10.6744Z" fill="black" fill-opacity="0.3"/>
<path d="M14.2241 10.6739C14.5651 10.93 15.0501 10.8621 15.3071 10.5198C17.5642 7.51388 17.5642 3.31508 15.3071 0.309107C15.0506 -0.0325161 14.5657 -0.101511 14.2241 0.155029C13.8825 0.411517 13.8136 0.89639 14.07 1.23801C15.9166 3.69708 15.9166 7.13193 14.07 9.59094C13.8136 9.93257 13.8826 10.4174 14.2241 10.6739Z" fill="black" fill-opacity="0.3"/>
<path d="M5.55684 9.08443C5.87505 8.79943 5.90202 8.31043 5.61702 7.99222C4.3009 6.52254 4.3009 4.30599 5.61702 2.83637C5.90197 2.51815 5.87505 2.02916 5.55684 1.74415C5.23863 1.4592 4.74968 1.48612 4.46463 1.80433C3.57677 2.79578 3.08777 4.07781 3.08777 5.41429C3.08777 6.75077 3.57672 8.0328 4.46463 9.02426C4.7487 9.34149 5.2376 9.37031 5.55684 9.08443Z" fill="black" fill-opacity="0.3"/>
<path d="M11.4433 9.08443C11.7629 9.37068 12.2518 9.34102 12.5355 9.02426C13.4234 8.0328 13.9124 6.75077 13.9124 5.41429C13.9124 4.07781 13.4234 2.79578 12.5355 1.80433C12.2505 1.48612 11.7615 1.4592 11.4433 1.74415C11.1251 2.02916 11.0981 2.51815 11.3831 2.83637C12.6992 4.30604 12.6992 6.5226 11.3831 7.99222C11.0981 8.31048 11.125 8.79943 11.4433 9.08443Z" fill="black" fill-opacity="0.3"/>
<path d="M8.50002 7.73516C9.77953 7.73516 10.8205 6.6942 10.8205 5.4147C10.8205 4.1352 9.77953 3.09424 8.50002 3.09424C7.22052 3.09424 6.17957 4.1352 6.17957 5.4147C6.17957 6.6942 7.22052 7.73516 8.50002 7.73516ZM8.50002 4.64121C8.92652 4.64121 9.27351 4.9882 9.27351 5.4147C9.27351 5.8412 8.92652 6.18818 8.50002 6.18818C8.07352 6.18818 7.72654 5.8412 7.72654 5.4147C7.72654 4.9882 8.07352 4.64121 8.50002 4.64121Z" fill="black" fill-opacity="0.3"/>
</svg>
